# xmcd
#
# Track frame offsets:
#	150
#	11281
#	22812
#	35307
#	48742
#	62169
#	72492
#	84027
#	95564
#	109229
#
# Disc length: 1589 seconds
#
# Revision: 1
# Processed by: cddbd v1.5.2PL0 Copyright (c) Steve Scherf et al.
# Submitted via: audiograbber 1.83.01
#
DISCID=7606330a
DTITLE=Various Artist - R&B Legends - Volume Two
DYEAR=1900
DGENRE=R&B
TTITLE0=Wynonie Harris - Drinkin' Wine
TTITLE1=Bill Dogget and His Combo - Slow Walk
TTITLE2=The Checkers - I Promise You
TTITLE3=Johnny Watson - In The Evenin'
TTITLE4=The Platters - Love All Night
TTITLE5=Otis Williams And His Charms - Silver Star
TTITLE6=Billy Ward and The Dominoes - Can't Do Sixty No More
TTITLE7=Roy Brown - Lolly Pop Mama
TTITLE8=Hank Ballard and The Midnighters - I Could Love You
TTITLE9=Percy Sledge - Wabash Cannonball
EXTD=
EXTT0=
EXTT1=
EXTT2=
EXTT3=
EXTT4=
EXTT5=
EXTT6=
EXTT7=
EXTT8=
EXTT9=
PLAYORDER=
